<svg xmlns="http://www.w3.org/2000/svg" width="24" height="24" viewBox="0 0 24 24"><path d="M12,24c-3.4,0-6.79,0-10.18,0A1.76,1.76,0,0,1,0,22.52a1.23,1.23,0,0,1,0-.27V1.75A1.69,1.69,0,0,1,1.72,0H22.21a1.74,1.74,0,0,1,1.71,1.22,2.17,2.17,0,0,1,.08.51V22.25A1.7,1.7,0,0,1,22.29,24H12Zm.82-13.52c0-.42,0-.84,0-1.26,0-.19-.07-.24-.25-.24H9.61c-.3,0-.3,0-.3.29,0,3.65,0,7.29,0,10.94,0,.23.07.29.3.29h3c.3,0,.3,0,.3-.29,0-1.84,0-3.67,0-5.5A7.2,7.2,0,0,1,13,13.55,1.79,1.79,0,0,1,14.34,12a3.56,3.56,0,0,1,.8-.08,1.47,1.47,0,0,1,1.57,1.25,5.92,5.92,0,0,1,.15,1.39c0,1.89,0,3.78,0,5.66,0,.31,0,.31.32.31h3c.22,0,.29-.06.29-.29,0-2.19,0-4.37,0-6.56a10.65,10.65,0,0,0-.27-2.17,3.2,3.2,0,0,0-2.34-2.56,8,8,0,0,0-1.39-.21,3.7,3.7,0,0,0-2.32.49A4.31,4.31,0,0,0,12.8,10.46ZM3.51,14.73c0,1.83,0,3.65,0,5.48,0,.22.07.28.28.28H6.87c.19,0,.27,0,.27-.27v-11C7.14,9,7.07,9,6.87,9H3.81c-.29,0-.3,0-.3.31Zm1.82-7.3A2.09,2.09,0,1,0,3.24,5.36,2.07,2.07,0,0,0,5.33,7.43Z" transform="translate(0 0)" fill="#fff"/></svg>
