<svg xmlns="http://www.w3.org/2000/svg" width="24" height="24" viewBox="0 0 400 400"><path d="M350,0H50A50,50,0,0,0,0,50V350a50,50,0,0,0,50,50H350a50,50,0,0,0,50-50V50A50,50,0,0,0,350,0ZM299.41,149q.15,3.3.15,6.63c0,67.78-51.59,145.94-145.94,145.94a145.17,145.17,0,0,1-78.62-23,105.19,105.19,0,0,0,12.24.71,102.91,102.91,0,0,0,63.7-22A51.34,51.34,0,0,1,103,221.68a51.42,51.42,0,0,0,23.17-.88A51.31,51.31,0,0,1,85,170.52c0-.23,0-.44,0-.66a50.87,50.87,0,0,0,23.23,6.42A51.31,51.31,0,0,1,92.4,107.81a145.62,145.62,0,0,0,105.72,53.58,51.32,51.32,0,0,1,87.41-46.77,102.91,102.91,0,0,0,32.57-12.45,51.52,51.52,0,0,1-22.56,28.37A102.42,102.42,0,0,0,325,122.47,104.36,104.36,0,0,1,299.41,149Z" fill="#fff"/></svg>
