<svg xmlns="http://www.w3.org/2000/svg"  viewBox="0 0 830.07 306.3"><defs><style>.cls-1{fill:#ededed;}.cls-2{fill:#e4e4e4;}.cls-3{fill:#c8c8c8;}</style></defs><g id="Layer_2" data-name="Layer 2"><g id="Layer_2-2" data-name="Layer 2"><path class="cls-1" d="M108,292.25q-12-13-16-33.4H47.45V0H0V302H119.9A54.79,54.79,0,0,1,108,292.25Z"/><path class="cls-2" d="M138.26,286.67q-18.12-19.62-18.12-56.3V0H167.6V233.83q0,15.53,6.25,22.43t17.91,6.9q11.64,0,17.9-6.9t6.25-22.43V0h45.73V230.37q0,36.67-18.12,56.3T190.89,306.3Q156.38,306.3,138.26,286.67Z"/><path class="cls-1" d="M385.79,0V180.76h-.86L338.77,0h-47.9V236.42q0,29.37-11.62,47.8V302h42.28V81.53h.85L379.32,302h48.75V0Z"/><path class="cls-1" d="M454.86,0H525.4L634.75,302h-44l-21.41-59.11h-70.3L498.86,302h-44Zm44,52.63V201.9h56.95"/><path class="cls-1" d="M754.57,286.24a204.41,204.41,0,0,1-.86-20.92V212.25q0-26.75-7.11-42.71t-24.38-21.13v-.87Q753.28,135,753.28,88V69.45q0-35.36-16.83-52.41T683,0H612.64V167.42l47.46,131V172.56h16.39q16.39,0,23.08,8.2t6.68,28.9v55.23q0,16.82.87,23.29a68.38,68.38,0,0,0,3.45,13.8H761C755,299.63,755.15,291.56,754.57,286.24ZM705.82,97.5q0,17.27-7.11,24.59t-21.36,7.33H660.1V43.14h21.57q12.5,0,18.33,7.34t5.82,23.72Z"/><path class="cls-3" d="M138.26,286.67q-18.12-19.62-18.12-56.3V0H167.6V233.83q0,15.53,6.25,22.43t17.91,6.9q11.64,0,17.9-6.9t6.25-22.43V0h45.73V230.37q0,36.67-18.12,56.3T190.89,306.3Q156.38,306.3,138.26,286.67Z"/><circle class="cls-1" cx="802.87" cy="274.78" r="27.2"/></g></g></svg>
